<?xml version="1.0" standalone="no"?>
<!DOCTYPE svg PUBLIC "-//W3C//DTD SVG 20010904//EN"
 "http://www.w3.org/TR/2001/REC-SVG-20010904/DTD/svg10.dtd">
<svg version="1.0" xmlns="http://www.w3.org/2000/svg"
 width="700.000000pt" height="700.000000pt" viewBox="0 0 700.000000 700.000000"
 preserveAspectRatio="xMidYMid meet">
<metadata>
Created by potrace 1.11, written by Peter Selinger 2001-2013
</metadata>
<g transform="translate(0.000000,700.000000) scale(0.100000,-0.100000)"
fill="#000000" stroke="none">
<path d="M1635 6404 c-169 -31 -334 -158 -408 -314 -65 -135 -60 60 -60 -2590
l0 -2405 22 -80 c29 -106 71 -176 150 -256 74 -73 143 -116 246 -150 l70 -24
1845 0 1845 0 68 22 c199 63 352 224 403 423 16 59 17 218 18 1851 l0 1786
-876 875 -875 875 -1189 0 c-922 0 -1205 -3 -1259 -13z m2961 -1228 c437 -437
794 -796 794 -798 0 -3 -1574 -2 -1592 1 -9 1 -11 1591 -2 1591 3 0 363 -357
800 -794z m-808 -2843 l-3 -1166 -288 -1 -287 -1 0 1168 0 1167 290 0 290 0
-2 -1167z m-1163 -290 c0 -694 -2 -873 -12 -873 -7 -1 -138 -1 -290 -1 l-278
-1 -2 875 -1 875 291 -2 292 -1 0 -872z m2316 288 c15 -1 17 -51 17 -581 l0
-580 -59 0 c-32 -1 -151 -1 -264 -1 -113 0 -217 0 -233 1 l-27 0 1 578 c1 317
2 579 3 582 1 4 503 5 562 1z"/>
</g>
</svg>
